# xmcd
#
# Track frame offsets: 
#        150
#        38297
#        84655
#        105950
#        126879
#        137833
#        170881
#        210913
#
# Disc length: 3177 seconds
#
# Revision: 1
# Processed by: cddbd v1.5.2PL0 Copyright (c) Steve Scherf et al.
# Submitted via: ExactAudioCopyFreeDBPlugin 1.0
#
DISCID=600c6708
DTITLE=Lorenzo De Finti Quartet - Love Unknown
DYEAR=2018
DGENRE=Jazz
TTITLE0=The Vortex of the Angel
TTITLE1=The Day I'll See You Again
TTITLE2=Return to Quarakosh - Sunrise
TTITLE3=Return to Quarakosh -  Black Flag
TTITLE4=Return to Quarakosh - Auún Duashmèya
TTITLE5=Love Unknown
TTITLE6=Lied ohne Worte
TTITLE7=The Vortex of the Angel (IndieHub Live Session)
EXTD=YEAR: 2018
EXTT0=
EXTT1=
EXTT2=
EXTT3=
EXTT4=
EXTT5=
EXTT6=
EXTT7=
PLAYORDER=
